<?xml version="1.0" encoding="utf-8"?>
<!-- Generator: Adobe Illustrator 22.0.1, SVG Export Plug-In . SVG Version: 6.00 Build 0)  -->
<svg version="1.1" id="Layer_1" xmlns="http://www.w3.org/2000/svg" xmlns:xlink="http://www.w3.org/1999/xlink" x="0px" y="0px"
	 viewBox="0 0 1188 319" style="enable-background:new 0 0 1188 319;" xml:space="preserve">
<style type="text/css">
	.st0{fill:#1B2D58;}
	.st1{fill:#FFFFFF;}
	.st2{fill:#FFE164;}
</style>
<rect class="st0" width="1188" height="319"/>
<g>
	<path class="st1" d="M205.1,166.8c2.2-4.9,4.4-9.7,6.6-14.6c2.2-4.9,4.3-9.3,6.1-13.3l3-6.6l0.6,7.2c1,11.5,1.8,23.1,2.3,34.4
		c0.5,10.6,0.9,20.6,1.2,29.6l19.3,0c-0.4-7.1-0.8-14.8-1.4-23c-0.6-8.8-1.2-17.7-1.9-26.5c-0.7-8.8-1.4-17.3-2.3-25.4
		c-0.8-7.4-1.7-14.2-2.6-20.4l-18.9,0c-1.7,2.9-3.6,6.5-5.7,10.6c-2.4,4.6-4.9,9.6-7.5,15c-2.6,5.4-5.2,10.9-7.7,16.5l-8.9,19.8
		l-9-19.7c-2.5-5.6-5.1-11.1-7.7-16.5c-2.6-5.3-5.1-10.4-7.5-15c-2.2-4.1-4.1-7.7-5.8-10.6l-20,0c-0.9,6.1-1.8,13-2.5,20.4
		c-0.8,8.1-1.6,16.6-2.3,25.4c-0.7,8.8-1.3,17.8-1.8,26.5c-0.5,8.1-0.9,15.8-1.3,23l19.3,0c0.3-9.2,0.7-19.2,1.1-29.6
		c0.5-11.3,1.2-22.9,2.3-34.4l0.6-7.2l3,6.6c1.8,4,3.9,8.4,6.1,13.3c2.3,4.9,4.5,9.7,6.7,14.6c2.2,4.9,4.3,9.5,6.4,13.9
		c1.8,3.9,3.4,7.3,4.7,10.2l14.2,0c1.3-2.9,2.9-6.3,4.7-10.3C200.8,176.3,202.9,171.6,205.1,166.8z"/>
	<path class="st1" d="M545.2,170.8c7.7,10.7,15,21.7,21.7,32.8l17,0l-0.1-95.2l-19.8,0l0.1,62.6l-3.5-4.9c-3.6-5.1-7.6-10.5-11.7-16
		c-4.1-5.5-8.4-10.9-12.6-16.1c-4.2-5.1-8.4-10-12.4-14.6c-3.8-4.3-7.3-7.9-10.5-10.9l-16.7,0l0.1,95.3l19.7,0l-0.1-68l3.4,3.7
		C528.6,149.1,537.2,159.7,545.2,170.8z"/>
	<polygon class="st1" points="677.3,188.2 630.4,188.3 630.3,108.3 610.4,108.4 610.5,203.6 677.3,203.5 	"/>
	
		<rect x="703.9" y="108.4" transform="matrix(1 -1.255492e-03 1.255492e-03 1 -0.1953 0.8964)" class="st1" width="20" height="95.2"/>
	<polygon class="st1" points="925,203.5 945,203.5 944.9,108.3 924.9,108.3 925,146.2 881.1,146.2 881.1,108.3 861.1,108.4 
		861.2,203.6 881.2,203.6 881.1,161.5 925,161.5 	"/>
	<polygon class="st1" points="1000.9,123.5 1001,203.6 1021,203.6 1020.9,123.5 1052.8,123.5 1052.8,108.3 969,108.4 969.1,123.6 	
		"/>
	<path class="st1" d="M315.9,106.3c-27.9,0-49.7,21.7-49.7,49.5c0,27.9,21.8,49.8,49.7,49.8c27.8,0,49.5-21.9,49.5-49.8
		C365.4,128,343.6,106.3,315.9,106.3z M315.8,186c-16.9,0-30.2-13.3-30.2-30.2c0-16.8,13.2-30,30.2-30c16.9,0,30.1,13.2,30.1,30
		C345.9,172.8,332.7,186,315.8,186z"/>
	<path class="st2" d="M380.8,186.1c9.4,12.7,24.1,20.1,40.4,20.1c28.1,0,50.2-22.1,50.2-50.4c0-23.4-15.4-42.9-37.4-48.5
		c7.3,8.8,11.2,19.8,11.2,31.5c0,27.8-21.7,49.6-49.4,49.6C390.7,188.4,385.7,187.6,380.8,186.1z"/>
	<path class="st1" d="M750.1,155.7c0,27.8,22.3,49.5,50,49.5c13.1,0,25.3-5,34.5-14l0-39.6l-19.5,0c-7.9,0-14.4,5.7-15.6,13.4
		l16.5,0l0,16.7l-1.3,0.7c-4.4,2.6-9.5,3.9-14.7,3.9c-18.1,0-30.5-12.7-30.5-30.5c0-0.2,0-0.5,0-0.7l0-0.3
		c0.5-15.9,13.9-28.9,29.8-28.9c6.1,0,10.6,1.2,18.1,5.2l10.4-16.2c-8.2-5.5-17.7-8.5-27.9-8.5C772.4,106.6,750.1,128.1,750.1,155.7
		z"/>
</g>
</svg>
