<?xml version="1.0" encoding="utf-8"?>
<!-- Generator: Adobe Illustrator 22.0.1, SVG Export Plug-In . SVG Version: 6.00 Build 0)  -->
<svg version="1.1" id="Layer_1" xmlns="http://www.w3.org/2000/svg" xmlns:xlink="http://www.w3.org/1999/xlink" x="0px" y="0px"
	 viewBox="0 0 1188 319" style="enable-background:new 0 0 1188 319;" xml:space="preserve">
<style type="text/css">
	.st0{fill:#7E8CA8;}
	.st1{fill:#1B2D58;}
</style>
<path class="st0" d="M381.6,185.7c9.4,12.7,24.1,20.1,40.4,20.1c28.1,0,50.2-22.1,50.2-50.4c0-23.4-15.4-42.9-37.4-48.5
	c7.3,8.8,11.2,19.8,11.2,31.5c0,27.8-21.7,49.6-49.4,49.6C391.5,188,386.4,187.2,381.6,185.7z"/>
<g>
	<path class="st1" d="M241.9,153.6c-0.7-8.8-1.4-17.3-2.3-25.4c-0.8-7.4-1.7-14.2-2.6-20.4l-18.9,0c-1.7,2.9-3.6,6.5-5.7,10.6
		c-2.4,4.6-4.9,9.6-7.5,15c-2.6,5.4-5.2,10.9-7.7,16.5l-8.9,19.8l-9-19.7c-2.5-5.6-5.1-11.1-7.7-16.5c-2.6-5.3-5.1-10.4-7.5-15
		c-2.2-4.1-4.1-7.7-5.8-10.6l-20,0c-0.9,6.1-1.8,13-2.5,20.4c-0.8,8.1-1.6,16.6-2.3,25.4c-0.7,8.8-1.3,17.8-1.8,26.5
		c-0.5,8.1-0.9,15.8-1.3,23l19.3,0c0.3-9.2,0.7-19.2,1.1-29.6c0.5-11.3,1.2-22.9,2.3-34.4l0.6-7.2l3,6.6c1.8,4,3.9,8.4,6.1,13.3
		c2.3,4.9,4.5,9.7,6.7,14.6c2.2,4.9,4.3,9.5,6.4,13.9c1.8,3.9,3.4,7.3,4.7,10.2l14.2,0c1.3-2.9,2.9-6.3,4.7-10.3
		c2-4.4,4.1-9.1,6.3-13.9c2.2-4.9,4.4-9.7,6.6-14.6c2.2-4.9,4.3-9.3,6.1-13.3l3-6.6l0.6,7.2c1,11.5,1.8,23.1,2.3,34.4
		c0.5,10.6,0.9,20.6,1.2,29.6l19.3,0c-0.4-7.1-0.8-14.8-1.4-23C243.2,171.3,242.6,162.4,241.9,153.6z"/>
	<path class="st1" d="M564.7,107.9l0.1,62.6l-3.5-4.9c-3.6-5.1-7.6-10.5-11.7-16c-4.1-5.5-8.4-10.9-12.6-16.1
		c-4.2-5.1-8.4-10-12.4-14.6c-3.8-4.3-7.3-7.9-10.5-10.9l-16.7,0l0.1,95.3l19.7,0l-0.1-68l3.4,3.7c9,9.8,17.6,20.4,25.5,31.5
		c7.7,10.7,15,21.7,21.7,32.8l17,0l-0.1-95.2L564.7,107.9z"/>
	<polygon class="st1" points="631.2,187.9 631.1,108 611.1,108 611.3,203.2 678.1,203.1 678,187.8 	"/>
	
		<rect x="704.7" y="108" transform="matrix(1 -1.262359e-03 1.262359e-03 1 -0.1958 0.9022)" class="st1" width="20" height="95.2"/>
	<polygon class="st1" points="925.7,107.9 925.7,145.8 881.9,145.9 881.8,108 861.9,108 862,203.2 882,203.2 881.9,161.2 
		925.7,161.1 925.8,203.2 945.7,203.1 945.6,107.9 	"/>
	<polygon class="st1" points="1053.6,123.1 1053.5,107.9 969.8,108 969.8,123.2 1001.7,123.2 1001.8,203.2 1021.8,203.2 
		1021.7,123.1 	"/>
	<path class="st1" d="M316.6,105.9c-27.9,0-49.7,21.7-49.7,49.5c0,27.9,21.8,49.8,49.7,49.8c27.8,0,49.5-21.9,49.5-49.8
		C366.2,127.7,344.4,105.9,316.6,105.9z M316.6,185.7c-16.9,0-30.2-13.3-30.2-30.2c0-16.8,13.2-30,30.2-30c16.9,0,30.1,13.2,30.1,30
		C346.7,172.4,333.5,185.7,316.6,185.7z"/>
	<path class="st1" d="M815.8,151.2c-7.9,0-14.4,5.7-15.6,13.4l16.5,0l0,16.7l-1.3,0.7c-4.4,2.6-9.5,3.9-14.7,3.9
		c-18.1,0-30.5-12.7-30.5-30.5c0-0.2,0-0.5,0-0.7l0-0.3c0.5-15.9,13.9-28.9,29.8-28.9c6.1,0,10.6,1.2,18.1,5.2l10.4-16.2
		c-8.2-5.5-17.7-8.5-27.9-8.5c-27.6,0-50,21.6-50,49.1c0,27.8,22.3,49.5,50,49.5c13.1,0,25.3-5,34.5-14l0-39.6L815.8,151.2z"/>
</g>
</svg>
