<?xml version="1.0" encoding="UTF-8" standalone="no"?>
<!DOCTYPE svg PUBLIC "-//W3C//DTD SVG 1.1//EN" "http://www.w3.org/Graphics/SVG/1.1/DTD/svg11.dtd">
<svg width="100%" height="100%" viewBox="0 0 46 46" version="1.1" xmlns="http://www.w3.org/2000/svg" xmlns:xlink="http://www.w3.org/1999/xlink" xml:space="preserve" xmlns:serif="http://www.serif.com/" style="fill-rule:evenodd;clip-rule:evenodd;stroke-linejoin:round;stroke-miterlimit:1.41421;">
    <g transform="matrix(1,0,0,1,-513.969,-300.833)">
        <g transform="matrix(-33.5,-5.5,-5.5,33.5,550.06,331.363)">
            <path d="M0.027,-0.154C0.255,0.138 0.676,0.19 0.968,-0.038C1.016,-0.076 1.058,-0.118 1.093,-0.165C1.097,0.04 1.009,0.244 0.835,0.379C0.543,0.607 0.122,0.555 -0.106,0.263C-0.296,0.019 -0.291,-0.315 -0.115,-0.551C-0.111,-0.412 -0.065,-0.272 0.027,-0.154Z" style="fill:url(#_Radial1);fill-rule:nonzero;"/>
        </g>
        <g transform="matrix(29,8.33333,8.33333,-29,518.119,319.252)">
            <path d="M-0.114,-0.053C-0.115,-0.05 -0.115,-0.049 -0.115,-0.047C-0.073,-0.084 -0.027,-0.118 0.024,-0.146C0.302,-0.3 0.618,-0.285 0.842,-0.103C0.939,-0.024 0.968,0.05 0.862,0.036C0.582,0.002 0.324,0.227 0.159,0.267C0.106,0.28 0.051,0.286 0.003,0.273C-0.079,0.249 -0.137,0.164 -0.114,-0.053Z" style="fill:url(#_Radial2);fill-rule:nonzero;"/>
        </g>
        <g transform="matrix(1,0,0,1,544.104,310.285)">
            <path d="M0,-0.55C-0.152,0.366 0.467,1.231 1.383,1.383C2.298,1.534 3.164,0.915 3.315,0C3.467,-0.916 2.848,-1.781 1.933,-1.933C1.017,-2.084 0.152,-1.466 0,-0.55" style="fill:rgb(69,187,255);fill-rule:nonzero;"/>
        </g>
        <g transform="matrix(1,0,0,1,534.19,304.554)">
            <path d="M0,0.055C0.015,2.125 1.706,3.791 3.775,3.775C5.846,3.76 7.511,2.07 7.496,0C7.48,-2.07 5.79,-3.736 3.72,-3.721C1.65,-3.705 -0.016,-2.015 0,0.055" style="fill:rgb(255,226,89);fill-rule:nonzero;"/>
        </g>
    </g>
    <defs>
        <radialGradient id="_Radial1" cx="0" cy="0" r="1" gradientUnits="userSpaceOnUse" gradientTransform="matrix(1,0,0,-1,-3.55271e-15,0.0563202)"><stop offset="0" style="stop-color:rgb(255,226,89);stop-opacity:1"/><stop offset="1" style="stop-color:rgb(255,164,0);stop-opacity:1"/></radialGradient>
        <radialGradient id="_Radial2" cx="0" cy="0" r="1" gradientUnits="userSpaceOnUse" gradientTransform="matrix(1,0,0,-1,0,-0.0143023)"><stop offset="0" style="stop-color:rgb(69,187,255);stop-opacity:1"/><stop offset="1" style="stop-color:rgb(26,82,150);stop-opacity:1"/></radialGradient>
    </defs>
</svg>
