<?xml version="1.0" encoding="utf-8"?>
<!-- Generator: Adobe Illustrator 22.1.0, SVG Export Plug-In . SVG Version: 6.00 Build 0)  -->
<svg version="1.1" id="Layer_1" xmlns="http://www.w3.org/2000/svg" xmlns:xlink="http://www.w3.org/1999/xlink" x="0px" y="0px"
	 viewBox="0 0 500 500" style="enable-background:new 0 0 500 500;" xml:space="preserve">
<style type="text/css">
	.st0{fill:#1D2E58;}
	.st1{fill:url(#SVGID_1_);}
	.st2{fill:url(#SVGID_2_);}
	.st3{fill:#45BBFF;}
	.st4{fill:#FFE259;}
</style>
<circle class="st0" cx="250" cy="250" r="239"/>
<radialGradient id="SVGID_1_" cx="347.6175" cy="181.6166" r="252.3815" gradientTransform="matrix(1 0 0 -1 0 500.5512)" gradientUnits="userSpaceOnUse">
	<stop  offset="0" style="stop-color:#FFE259"/>
	<stop  offset="1" style="stop-color:#FFA400"/>
</radialGradient>
<path class="st1" d="M401,172.4c-6.5,34.5-23.7,67.3-51.5,92.9c-68.6,63.4-175.7,59.2-239.1-9.5c-10.5-11.3-19.1-23.7-25.9-36.8
	c-9.5,50.8,4.2,105.3,42,146.2c63.4,68.6,170.5,72.9,239.1,9.5C422.9,321.8,435.3,238.5,401,172.4L401,172.4z"/>
<radialGradient id="SVGID_2_" cx="111.5801" cy="282.5985" r="224.3178" gradientTransform="matrix(1 0 0 -1 0 500.5512)" gradientUnits="userSpaceOnUse">
	<stop  offset="0" style="stop-color:#45BBFF"/>
	<stop  offset="1" style="stop-color:#1A5296"/>
</radialGradient>
<path class="st2" d="M108.6,247.8c50.4,50.5,119.4,66.8,179.1,41.5c25.8-11,36.5-25.3,12.8-28.9c-62.5-9.9-104.1-74.5-137.2-93.3
	c-29.3-16.6-65.5-23.6-78.8,52c0.1-0.5,0.2-0.9,0.3-1.3C91.5,228.4,99.3,238.6,108.6,247.8L108.6,247.8z"/>
<circle class="st3" cx="318" cy="146.2" r="12.5"/>
<circle class="st4" cx="259.8" cy="105.8" r="27.9"/>
</svg>
