<?xml version="1.0" encoding="utf-8"?>
<!-- Generator: Adobe Illustrator 22.1.0, SVG Export Plug-In . SVG Version: 6.00 Build 0)  -->
<svg version="1.1" id="Layer_1" xmlns="http://www.w3.org/2000/svg" xmlns:xlink="http://www.w3.org/1999/xlink" x="0px" y="0px"
	 viewBox="0 0 500 500" style="enable-background:new 0 0 500 500;" xml:space="preserve">
<style type="text/css">
	.st0{fill:#FFFFFF;}
	.st1{fill:url(#SVGID_1_);}
	.st2{fill:url(#SVGID_2_);}
	.st3{fill:url(#SVGID_3_);}
	.st4{fill:#FFA400;}
	.st5{fill:#1A5296;}
</style>
<circle class="st0" cx="250" cy="250" r="239"/>
<radialGradient id="SVGID_1_" cx="384.4926" cy="325.4291" r="280.4852" gradientUnits="userSpaceOnUse">
	<stop  offset="0" style="stop-color:#1A5296"/>
	<stop  offset="1" style="stop-color:#1A2C59"/>
</radialGradient>
<path class="st1" d="M401.3,172.5c-6.5,34.5-23.7,67.4-51.5,93c-68.7,63.5-175.9,59.2-239.3-9.5c-10.5-11.3-19.1-23.7-25.9-36.8
	c-9.5,50.8,4.2,105.4,42,146.3c63.5,68.7,170.6,73,239.3,9.5C423.3,322.1,435.7,238.6,401.3,172.5z"/>
<g>
	<radialGradient id="SVGID_2_" cx="124.0278" cy="208.8401" r="153.2371" gradientUnits="userSpaceOnUse">
		<stop  offset="0" style="stop-color:#FFE259"/>
		<stop  offset="1" style="stop-color:#FFA400"/>
	</radialGradient>
	<path class="st2" d="M108.6,248c50.4,50.6,119.5,66.9,179.3,41.5c25.8-11,36.5-25.3,12.8-28.9c-62.6-9.9-104.2-74.6-137.3-93.4
		c-29.4-16.7-65.5-23.6-78.9,52c0.1-0.5,0.2-0.9,0.3-1.3C91.5,228.6,99.4,238.7,108.6,248z"/>
	<radialGradient id="SVGID_3_" cx="124.0278" cy="208.8401" r="153.2371" gradientUnits="userSpaceOnUse">
		<stop  offset="0" style="stop-color:#FFE259"/>
		<stop  offset="1" style="stop-color:#FFA400"/>
	</radialGradient>
	<path class="st3" d="M355.2,260c1.9-1.9,3.9-3.8,5.7-5.8c-0.1,0.1-0.3,0.1-0.4,0.2C358.7,256.3,356.9,258.2,355.2,260z"/>
</g>
<circle class="st4" cx="318.2" cy="146.2" r="12.5"/>
<circle class="st5" cx="260" cy="105.8" r="27.9"/>
</svg>
